# xmcd CD database file
#
# Track frame offsets:
#	150
#	18509
#	34870
#	50968
#	68726
#	88631
#	107841
#	124045
#	144835
#	164926
#	184285
#	205384
#	221629
#
# Disc length: 3209 seconds
#
# Revision: 0
# Processed by: cddbd v1.5.2PL0 Copyright (c) Steve Scherf et al.
# Submitted via: CDex 1.51
#
DISCID=c90c870d
DTITLE=Kip Moore - Up All Night (Deluxe Edition)
DYEAR=2012
DGENRE=Country
TTITLE0=Drive Me Crazy
TTITLE1=Beer Money
TTITLE2=Somethin' 'Bout A Truck
TTITLE3=Everything But You
TTITLE4=Crazy One More Time
TTITLE5=Where You Are Tonight
TTITLE6=Hey Pretty Girl
TTITLE7=Reckless (Still Growin' Up)
TTITLE8=Up All Night
TTITLE9=Fly Again
TTITLE10=Faith When I Fall
TTITLE11=Mary Was The Marrying Kind
TTITLE12=Motorcycle
EXTD=YEAR: 2012
EXTT0=
EXTT1=
EXTT2=
EXTT3=
EXTT4=
EXTT5=
EXTT6=
EXTT7=
EXTT8=
EXTT9=
EXTT10=
EXTT11=
EXTT12=
PLAYORDER=
